<?xml version="1.0" standalone="no"?>
<!DOCTYPE svg PUBLIC "-//W3C//DTD SVG 20010904//EN"
 "http://www.w3.org/TR/2001/REC-SVG-20010904/DTD/svg10.dtd">
<svg version="1.0" xmlns="http://www.w3.org/2000/svg"
 width="200.000000pt" height="200.000000pt" viewBox="0 0 400.000000 400.000000"
 preserveAspectRatio="xMidYMid meet">

<g transform="translate(0.000000,400.000000) scale(0.100000,-0.100000)"
fill="#ffffff" stroke="none">
<path d="M2145 3538 c-565 -749 -790 -1048 -900 -1191 -66 -87 -129 -171 -140
-187 -11 -16 -127 -170 -258 -343 l-238 -314 3 -164 3 -164 863 -3 862 -2 0
-435 0 -435 273 2 272 3 3 433 2 432 165 0 165 0 0 250 0 250 -162 2 -163 3
-5 1060 -5 1060 -271 3 -271 2 -198 -262z m193 -1215 l-3 -648 -487 -3 c-394
-2 -488 0 -488 11 0 7 63 96 140 197 354 466 725 955 779 1027 25 35 49 63 54
63 4 0 6 -291 5 -647z"/>
</g>
</svg>
