<?xml version="1.0" standalone="no"?>
<!DOCTYPE svg PUBLIC "-//W3C//DTD SVG 20010904//EN"
 "http://www.w3.org/TR/2001/REC-SVG-20010904/DTD/svg10.dtd">
<svg version="1.0" xmlns="http://www.w3.org/2000/svg"
 width="200.000000pt" height="200.000000pt" viewBox="0 0 340.000000 452.000000"
 preserveAspectRatio="xMidYMid meet">

<g transform="translate(0.000000,452.000000) scale(0.100000,-0.100000)"
fill="#ffffff" stroke="none">
<path d="M1615 4503 c-453 -36 -811 -189 -1093 -465 -171 -167 -272 -325 -346
-537 -39 -112 -44 -149 -21 -157 8 -4 175 -34 371 -68 l355 -62 49 103 c104
221 218 347 394 434 146 72 252 92 456 86 139 -4 165 -8 251 -36 273 -89 402
-266 403 -551 0 -238 -100 -397 -317 -504 -172 -84 -304 -106 -657 -106 -162
0 -229 -3 -238 -12 -18 -18 -17 -621 1 -636 7 -6 145 -12 372 -14 330 -4 367
-6 440 -26 134 -36 234 -93 318 -181 84 -88 125 -155 160 -261 103 -311 -38
-611 -356 -760 -145 -68 -316 -97 -497 -86 -428 27 -696 229 -845 636 -26 71
-34 84 -50 82 -29 -5 -631 -152 -692 -169 -32 -8 -54 -21 -58 -32 -7 -22 42
-167 89 -259 184 -364 563 -689 951 -815 229 -74 406 -100 685 -100 521 1 895
118 1222 382 162 130 303 329 370 520 69 201 81 470 29 674 -63 243 -218 461
-431 602 -103 69 -153 93 -275 135 l-79 27 54 18 c278 90 515 357 596 671 32
122 42 316 25 448 -48 362 -273 649 -658 841 -278 138 -645 205 -978 178z"/>
</g>
</svg>
