<?xml version="1.0" standalone="no"?>
<!DOCTYPE svg PUBLIC "-//W3C//DTD SVG 20010904//EN"
 "http://www.w3.org/TR/2001/REC-SVG-20010904/DTD/svg10.dtd">
<svg version="1.0" xmlns="http://www.w3.org/2000/svg"
 width="900.000000pt" height="940.000000pt" viewBox="0 0 900.000000 940.000000"
 preserveAspectRatio="xMidYMid meet">

<g transform="translate(0.000000,940.000000) scale(0.100000,-0.100000)"
fill="#ffffff" stroke="none">
<path d="M4501 9189 c-581 -44 -1128 -255 -1563 -601 -132 -105 -182 -152
-325 -301 -427 -446 -697 -1016 -867 -1832 -55 -267 -112 -728 -138 -1120 -16
-248 -16 -1026 0 -1270 76 -1142 293 -1932 693 -2525 196 -290 495 -586 784
-776 485 -318 1008 -459 1634 -441 468 14 820 98 1206 286 253 124 439 258
658 471 316 307 525 641 675 1075 154 446 208 1085 137 1625 -69 532 -267
1011 -579 1405 -97 122 -310 337 -426 429 -369 294 -763 459 -1234 516 -115
14 -417 14 -531 0 -442 -54 -814 -233 -1152 -553 l-76 -72 7 100 c27 393 112
911 192 1179 93 306 175 461 335 630 191 202 400 311 644 336 281 29 529 -44
706 -208 153 -142 251 -353 295 -642 l17 -112 41 6 c23 3 190 22 371 41 182
20 530 58 775 85 416 47 446 52 468 73 l23 23 -26 125 c-129 612 -347 1046
-701 1396 -324 319 -744 531 -1224 617 -230 42 -554 56 -819 35z m317 -4365
c380 -78 662 -343 797 -747 69 -207 104 -443 109 -737 11 -605 -95 -1010 -327
-1256 -176 -187 -359 -279 -600 -305 -302 -31 -579 80 -828 332 -187 188 -292
380 -369 673 -46 175 -61 300 -67 551 -13 567 97 929 365 1202 149 151 325
248 522 288 94 19 304 18 398 -1z"/>
</g>
</svg>
