<?xml version="1.0" standalone="no"?>
<!DOCTYPE svg PUBLIC "-//W3C//DTD SVG 20010904//EN"
 "http://www.w3.org/TR/2001/REC-SVG-20010904/DTD/svg10.dtd">
<svg version="1.0" xmlns="http://www.w3.org/2000/svg"
 width="900.000000pt" height="940.000000pt" viewBox="0 0 197.000000 256.000000"
 preserveAspectRatio="xMidYMid meet">

<g transform="translate(0.000000,256.000000) scale(0.100000,-0.100000)"
fill="#ffffff" stroke="none">
<path d="M498 1698 c-51 -270 -83 -465 -78 -468 5 -3 66 -14 135 -23 l125 -17
54 44 c73 59 134 81 221 80 84 -1 136 -24 188 -84 50 -59 70 -133 69 -255 -1
-215 -94 -341 -252 -340 -114 1 -204 72 -238 187 -14 49 -21 58 -40 58 -33 0
-306 -31 -310 -35 -11 -10 25 -126 59 -194 93 -187 280 -291 524 -291 178 0
307 51 422 167 78 79 140 187 168 298 19 73 22 238 5 320 -33 164 -151 321
-294 390 -134 64 -298 70 -423 15 -23 -10 -43 -16 -43 -12 0 4 11 70 25 146
14 77 25 144 25 148 0 4 146 8 325 8 l325 0 0 160 0 160 -453 0 -452 0 -87
-462z"/>
</g>
</svg>
