<?xml version="1.0" standalone="no"?>
<!DOCTYPE svg PUBLIC "-//W3C//DTD SVG 20010904//EN"
 "http://www.w3.org/TR/2001/REC-SVG-20010904/DTD/svg10.dtd">
<svg version="1.0" xmlns="http://www.w3.org/2000/svg"
 width="452.000000pt" height="452.000000pt" viewBox="0 0 452.000000 452.000000"
 preserveAspectRatio="xMidYMid meet">

<g transform="translate(0.000000,452.000000) scale(0.100000,-0.100000)"
fill="#ffffff" stroke="none">
<path d="M2139 4189 c-716 -443 -947 -590 -953 -605 -3 -8 -6 -206 -6 -439 l0
-423 31 -26 c17 -14 41 -26 53 -26 20 0 315 178 924 557 l162 102 0 -1544 0
-1544 24 -28 24 -28 429 -3 c235 -1 438 0 450 3 12 3 32 15 43 27 20 22 20 26
20 2047 -1 1577 -3 2030 -13 2042 -29 38 -45 39 -500 39 l-444 0 -244 -151z"/>
</g>
</svg>
